<?xml version="1.0" encoding="UTF-8"?>
<!DOCTYPE svg PUBLIC "-//W3C//DTD SVG 1.1//EN" "http://www.w3.org/Graphics/SVG/1.1/DTD/svg11.dtd">
<svg xmlns="http://www.w3.org/2000/svg" version="1.1" width="904px" height="2230px" style="shape-rendering:geometricPrecision; text-rendering:geometricPrecision; image-rendering:optimizeQuality; fill-rule:evenodd; clip-rule:evenodd" xmlns:xlink="http://www.w3.org/1999/xlink">
<g><path style="opacity:1" fill="#fefefe" d="M -0.5,-0.5 C 300.833,-0.5 602.167,-0.5 903.5,-0.5C 903.5,742.833 903.5,1486.17 903.5,2229.5C 602.167,2229.5 300.833,2229.5 -0.5,2229.5C -0.5,1486.17 -0.5,742.833 -0.5,-0.5 Z"/></g>
<g><path style="opacity:1" fill="#0519a8" d="M 551.5,913.5 C 552.527,914.848 553.86,915.348 555.5,915C 554.074,912.955 553.074,910.788 552.5,908.5C 552.196,902.423 552.696,896.423 554,890.5C 556.833,884.833 559.667,879.167 562.5,873.5C 563.002,872.479 563.668,872.312 564.5,873C 567.762,875.592 570.262,878.759 572,882.5C 575.61,890.721 578.943,899.054 582,907.5C 586.937,917.566 593.437,926.399 601.5,934C 609.212,940.714 617.212,947.047 625.5,953C 628.022,954.341 630.689,955.174 633.5,955.5C 633.181,951.864 632.015,948.531 630,945.5C 620.259,935.015 612.259,923.349 606,910.5C 604.079,900.632 605.912,891.632 611.5,883.5C 612.451,882.674 613.451,882.508 614.5,883C 616.989,887.105 618.489,891.605 619,896.5C 620.746,900.327 622.746,903.993 625,907.5C 632.802,916.303 640.969,924.803 649.5,933C 667.833,946.667 686.167,960.333 704.5,974C 719.265,986.094 733.431,998.927 747,1012.5C 750.182,1020.97 747.682,1027.14 739.5,1031C 723.417,1036.71 708.083,1044.04 693.5,1053C 684.696,1058.96 679.363,1067.12 677.5,1077.5C 677.887,1082.05 679.053,1086.38 681,1090.5C 685.117,1096.59 689.617,1102.42 694.5,1108C 708.43,1112.59 722.763,1114.43 737.5,1113.5C 743.605,1115 749.938,1115.66 756.5,1115.5C 787.022,1117.95 815.022,1127.45 840.5,1144C 844.868,1148.03 848.868,1152.37 852.5,1157C 858.941,1161.37 865.608,1165.37 872.5,1169C 878.331,1173.31 882.331,1178.81 884.5,1185.5C 886.041,1190.36 886.708,1195.36 886.5,1200.5C 885.368,1203.63 884.535,1206.96 884,1210.5C 883.218,1213.22 881.884,1215.55 880,1217.5C 879.228,1217.36 878.561,1217.02 878,1216.5C 877.651,1210.96 875.151,1206.79 870.5,1204C 858.382,1201.24 846.716,1197.4 835.5,1192.5C 831.402,1190.94 827.069,1190.44 822.5,1191C 823.411,1193.41 825.078,1194.91 827.5,1195.5C 835.351,1200.5 843.351,1205.34 851.5,1210C 852.687,1211.02 853.687,1212.19 854.5,1213.5C 853.833,1213.83 853.167,1214.17 852.5,1214.5C 823.569,1203.4 793.569,1199.9 762.5,1204C 749.178,1206 735.845,1208 722.5,1210C 717.38,1212.06 712.38,1214.39 707.5,1217C 694.784,1225.03 682.784,1234.03 671.5,1244C 645.327,1251.1 620.66,1261.43 597.5,1275C 582.589,1284.23 567.922,1293.9 553.5,1304C 531.187,1320.82 508.52,1337.16 485.5,1353C 482.326,1354.72 478.993,1356.06 475.5,1357C 466.386,1358.57 457.386,1360.24 448.5,1362C 450.966,1357.62 453.966,1353.62 457.5,1350C 458.448,1349.52 459.448,1349.35 460.5,1349.5C 460.5,1348.5 460.5,1347.5 460.5,1346.5C 450.44,1349.46 440.273,1352.13 430,1354.5C 429.5,1354.33 429,1354.17 428.5,1354C 431.964,1348.37 436.298,1343.54 441.5,1339.5C 434.508,1338.67 427.508,1338.5 420.5,1339C 423.5,1336 426.5,1333 429.5,1330C 453.176,1314.81 475.176,1297.64 495.5,1278.5C 496.478,1278.19 497.145,1277.52 497.5,1276.5C 495.364,1275.21 493.364,1275.21 491.5,1276.5C 485.49,1277.89 479.49,1279.39 473.5,1281C 464.895,1284.48 456.228,1287.64 447.5,1290.5C 447.33,1289.18 447.663,1288.01 448.5,1287C 453.721,1282.57 459.055,1278.41 464.5,1274.5C 465.751,1273.53 465.418,1272.86 463.5,1272.5C 460.525,1271.86 457.525,1271.36 454.5,1271C 455.416,1270.72 456.082,1270.22 456.5,1269.5C 474.185,1263.66 490.518,1255.16 505.5,1244C 511.653,1241.31 517.653,1238.48 523.5,1235.5C 526.261,1234.11 528.927,1232.61 531.5,1231C 529.406,1229.65 527.073,1229.15 524.5,1229.5C 524.5,1228.5 524.5,1227.5 524.5,1226.5C 532.329,1222.75 539.995,1218.75 547.5,1214.5C 549.828,1212.7 552.495,1211.53 555.5,1211C 556.833,1210.33 556.833,1209.67 555.5,1209C 551.102,1208.31 547.102,1209.14 543.5,1211.5C 540.813,1211.34 538.146,1211.5 535.5,1212C 506.431,1222.57 477.764,1233.91 449.5,1246C 438.392,1249.72 427.392,1253.72 416.5,1258C 404.757,1262.1 392.757,1265.27 380.5,1267.5C 379.375,1266.65 379.375,1265.65 380.5,1264.5C 389.061,1260.58 397.728,1256.75 406.5,1253C 415.182,1248.99 423.516,1244.49 431.5,1239.5C 434.861,1238.32 437.861,1236.48 440.5,1234C 437.523,1232.3 434.856,1232.8 432.5,1235.5C 420.361,1238.93 408.028,1241.59 395.5,1243.5C 385.847,1244.15 376.18,1244.48 366.5,1244.5C 365.5,1244.5 364.5,1244.5 363.5,1244.5C 363.167,1243.83 362.833,1243.17 362.5,1242.5C 371.378,1240.12 380.045,1237.45 388.5,1234.5C 391.479,1233.68 394.479,1232.85 397.5,1232C 397.167,1231.67 396.833,1231.33 396.5,1231C 391.934,1229.69 387.267,1229.19 382.5,1229.5C 374.871,1228.08 367.205,1226.41 359.5,1224.5C 357.94,1222.87 358.273,1221.7 360.5,1221C 374.325,1220.18 387.992,1219.34 401.5,1218.5C 405.5,1218.5 409.5,1218.5 413.5,1218.5C 418.844,1218.67 424.177,1218.5 429.5,1218C 430.833,1217.33 430.833,1216.67 429.5,1216C 426.929,1214.55 424.262,1213.38 421.5,1212.5C 408.08,1209.29 395.747,1203.62 384.5,1195.5C 384.427,1193.97 385.094,1192.97 386.5,1192.5C 405.666,1198.88 425.332,1203.88 445.5,1207.5C 447.5,1207.17 449.5,1206.83 451.5,1206.5C 472.922,1209.35 494.256,1210.02 515.5,1208.5C 519.846,1208.67 524.179,1208.5 528.5,1208C 530.058,1207.79 531.391,1207.29 532.5,1206.5C 534.199,1206.66 535.866,1206.49 537.5,1206C 540.249,1204.26 542.916,1202.42 545.5,1200.5C 547.936,1200.32 550.103,1200.98 552,1202.5C 579.224,1199.5 604.057,1190.33 626.5,1175C 642.754,1159.68 654.921,1141.52 663,1120.5C 664.574,1114.71 664.741,1109.05 663.5,1103.5C 662.118,1100.61 660.118,1098.11 657.5,1096C 645.519,1089.68 634.186,1082.34 623.5,1074C 612.637,1063.47 602.137,1052.64 592,1041.5C 576.889,1018.61 565.556,993.943 558,967.5C 557.34,965.676 556.173,964.343 554.5,963.5C 535.406,952.783 516.073,942.283 496.5,932C 481.516,920.84 466.182,910.174 450.5,900C 430.517,900.329 410.684,898.829 391,895.5C 389.027,895.309 387.527,895.976 386.5,897.5C 387.648,899.149 388.981,900.649 390.5,902C 407.14,912.325 424.473,921.325 442.5,929C 444.208,930.51 445.874,932.01 447.5,933.5C 446.148,934.896 444.481,935.563 442.5,935.5C 409.811,927.437 377.145,919.271 344.5,911C 326.66,907.351 308.66,905.684 290.5,906C 289.692,906.308 289.025,906.808 288.5,907.5C 296.388,917.954 306.388,925.787 318.5,931C 343.434,939.485 368.434,947.818 393.5,956C 401.67,960.044 409.67,964.211 417.5,968.5C 411.322,970.479 404.988,970.979 398.5,970C 388.504,967.003 378.504,964.003 368.5,961C 348.164,957.325 327.664,955.158 307,954.5C 289.505,955.436 272.005,955.602 254.5,955C 251.512,954.498 248.845,953.331 246.5,951.5C 240.013,947.756 233.347,944.256 226.5,941C 194.353,928.102 162.019,915.435 129.5,903C 110.244,894.114 94.0771,881.281 81,864.5C 80.3987,863.035 80.8987,862.035 82.5,861.5C 98.2345,871.534 114.901,879.7 132.5,886C 154.085,893.396 176.085,899.229 198.5,903.5C 200.515,904.924 202.848,905.59 205.5,905.5C 209.454,906.381 213.454,907.048 217.5,907.5C 219.517,908.874 221.517,908.707 223.5,907C 222.627,905.955 221.627,905.122 220.5,904.5C 212.768,897.971 204.102,892.804 194.5,889C 175.767,883.207 157.767,875.873 140.5,867C 126.203,858.705 115.37,847.205 108,832.5C 102.333,824.833 96.6667,817.167 91,809.5C 88.0056,804.529 86.6723,799.196 87,793.5C 88.3876,792.446 89.8876,792.28 91.5,793C 114.827,811.663 139.494,828.329 165.5,843C 190.307,853.21 215.307,862.71 240.5,871.5C 241.895,873.3 243.561,873.634 245.5,872.5C 245.043,870.402 244.043,868.736 242.5,867.5C 237.982,862.821 232.982,858.654 227.5,855C 208.329,844.92 189.996,833.587 172.5,821C 169.667,818.167 166.833,815.333 164,812.5C 154.785,795.404 146.119,778.071 138,760.5C 137.501,756.514 137.334,752.514 137.5,748.5C 139.655,748.372 141.655,748.872 143.5,750C 154.376,757.203 164.376,765.536 173.5,775C 191.5,789 209.5,803 227.5,817C 249.324,829.112 271.324,840.945 293.5,852.5C 294.568,853.434 295.901,853.768 297.5,853.5C 297.771,851.62 297.104,850.287 295.5,849.5C 293.164,844.651 289.831,840.484 285.5,837C 272.833,827 260.167,817 247.5,807C 235.309,796.754 226.476,784.254 221,769.5C 218.784,760.637 215.95,751.97 212.5,743.5C 213.333,743.167 214.167,742.833 215,742.5C 218.369,743.527 221.536,745.027 224.5,747C 229.833,750.667 235.167,754.333 240.5,758C 261.314,776.237 282.314,794.237 303.5,812C 319.664,822.583 335.998,832.917 352.5,843C 357.269,845.718 362.269,847.885 367.5,849.5C 366.428,845.244 364.261,841.578 361,838.5C 351.757,829.253 341.924,820.753 331.5,813C 323.663,805.496 316.163,797.663 309,789.5C 299.631,776.238 293.464,761.572 290.5,745.5C 291.873,745.343 293.207,745.51 294.5,746C 300.108,749.276 305.442,752.943 310.5,757C 368.214,809.904 432.214,853.404 502.5,887.5C 504.877,886.499 505.877,884.666 505.5,882C 504.438,877.523 503.438,873.023 502.5,868.5C 502.833,867.833 503.167,867.167 503.5,866.5C 513.242,872.409 520.742,880.409 526,890.5C 531.316,896.65 536.816,902.65 542.5,908.5C 545.215,910.733 548.215,912.4 551.5,913.5 Z"/></g>
<g><path style="opacity:1" fill="#51bcff" d="M 295.5,849.5 C 297.104,850.287 297.771,851.62 297.5,853.5C 295.901,853.768 294.568,853.434 293.5,852.5C 294.552,852.649 295.552,852.483 296.5,852C 295.748,851.329 295.414,850.496 295.5,849.5 Z"/></g>
<g><path style="opacity:1" fill="#6dc5fe" d="M 242.5,867.5 C 244.043,868.736 245.043,870.402 245.5,872.5C 243.561,873.634 241.895,873.3 240.5,871.5C 241.675,871.719 242.675,871.386 243.5,870.5C 242.873,869.583 242.539,868.583 242.5,867.5 Z"/></g>
<g><path style="opacity:1" fill="#41cbfe" d="M 554.5,963.5 C 557.419,994.044 568.252,1021.71 587,1046.5C 606.862,1069.82 630.028,1088.99 656.5,1104C 658.137,1104.6 659.803,1105.1 661.5,1105.5C 662.713,1105.25 663.38,1104.59 663.5,1103.5C 664.741,1109.05 664.574,1114.71 663,1120.5C 654.921,1141.52 642.754,1159.68 626.5,1175C 604.057,1190.33 579.224,1199.5 552,1202.5C 550.103,1200.98 547.936,1200.32 545.5,1200.5C 547.12,1198.02 549.453,1196.52 552.5,1196C 551.5,1195.83 550.5,1195.67 549.5,1195.5C 519.114,1203.69 489.781,1201.19 461.5,1188C 460.5,1187.17 459.5,1186.33 458.5,1185.5C 458.709,1184.91 459.043,1184.41 459.5,1184C 484.213,1183.41 505.879,1175.08 524.5,1159C 494.014,1162.37 465.347,1157.03 438.5,1143C 436,1141.17 433.5,1139.33 431,1137.5C 430.51,1136.21 430.343,1134.87 430.5,1133.5C 442.362,1135.56 454.362,1136.06 466.5,1135C 476.053,1132.49 485.72,1130.15 495.5,1128C 496.731,1126.82 496.731,1125.65 495.5,1124.5C 490.086,1121.76 484.753,1118.92 479.5,1116C 452.402,1107.7 425.068,1100.03 397.5,1093C 391.716,1090.39 385.716,1088.39 379.5,1087C 378.663,1085.99 378.33,1084.82 378.5,1083.5C 398.836,1083.67 419.169,1083.5 439.5,1083C 449.353,1082.32 459.019,1080.99 468.5,1079C 454.882,1076.91 441.548,1073.57 428.5,1069C 404.449,1060.15 380.449,1050.98 356.5,1041.5C 355.068,1041.73 354.568,1042.4 355,1043.5C 363.876,1053.04 374.376,1060.21 386.5,1065C 387.451,1065.72 387.617,1066.55 387,1067.5C 376.91,1068.65 366.744,1068.82 356.5,1068C 348.921,1065.78 341.254,1064.95 333.5,1065.5C 359.811,1091.65 391.478,1107.15 428.5,1112C 443.362,1112.27 457.362,1115.77 470.5,1122.5C 469.687,1123.81 468.687,1124.98 467.5,1126C 455.191,1127.35 442.858,1127.68 430.5,1127C 419.317,1123.16 407.983,1119.83 396.5,1117C 394.421,1116.19 392.421,1116.36 390.5,1117.5C 392.519,1122.68 395.519,1127.18 399.5,1131C 414.057,1144.87 431.057,1154.54 450.5,1160C 461.835,1162.5 473.168,1164.83 484.5,1167C 486.013,1169.45 485.346,1171.12 482.5,1172C 474.936,1173.77 467.27,1174.94 459.5,1175.5C 431.316,1172.45 403.983,1165.95 377.5,1156C 361.24,1149.87 345.24,1143.2 329.5,1136C 328.315,1134.65 326.981,1133.48 325.5,1132.5C 328.446,1131.35 331.446,1131.18 334.5,1132C 346.191,1134.71 358.025,1136.55 370,1137.5C 371.5,1137.33 373,1137.17 374.5,1137C 367.167,1133 359.833,1129 352.5,1125C 343.28,1122.26 334.28,1118.93 325.5,1115C 307.854,1111.06 290.521,1106.06 273.5,1100C 270.672,1097.75 267.672,1095.75 264.5,1094C 263.663,1092.99 263.33,1091.82 263.5,1090.5C 280.963,1091.93 298.463,1092.93 316,1093.5C 322.5,1093.33 329,1093.17 335.5,1093C 336.833,1091.67 336.833,1090.33 335.5,1089C 326.136,1084.65 316.803,1080.32 307.5,1076C 291.328,1072.13 274.995,1069.13 258.5,1067C 237.881,1061.92 218.714,1053.75 201,1042.5C 200.517,1041.55 200.351,1040.55 200.5,1039.5C 224.119,1043.24 247.786,1046.74 271.5,1050C 285.179,1050.83 298.846,1050.67 312.5,1049.5C 303.553,1041.78 293.22,1036.61 281.5,1034C 247.323,1026.37 213.656,1017.04 180.5,1006C 170.643,1002.48 161.476,997.643 153,991.5C 152.517,990.552 152.351,989.552 152.5,988.5C 190.286,995.962 228.286,1002.63 266.5,1008.5C 266.509,1006.69 266.009,1005.02 265,1003.5C 262.042,999.084 259.208,994.584 256.5,990C 225.867,979.591 195.201,968.924 164.5,958C 154.014,953.256 143.68,948.256 133.5,943C 131.65,940.982 129.65,939.149 127.5,937.5C 126.754,936.264 126.421,934.93 126.5,933.5C 139.65,937.826 152.983,941.659 166.5,945C 177.367,946.075 188.034,948.075 198.5,951C 215.108,953.254 231.775,954.254 248.5,954C 247.244,953.583 246.577,952.75 246.5,951.5C 248.845,953.331 251.512,954.498 254.5,955C 272.005,955.602 289.505,955.436 307,954.5C 327.664,955.158 348.164,957.325 368.5,961C 378.504,964.003 388.504,967.003 398.5,970C 404.988,970.979 411.322,970.479 417.5,968.5C 409.67,964.211 401.67,960.044 393.5,956C 368.434,947.818 343.434,939.485 318.5,931C 306.388,925.787 296.388,917.954 288.5,907.5C 289.025,906.808 289.692,906.308 290.5,906C 308.66,905.684 326.66,907.351 344.5,911C 377.145,919.271 409.811,927.437 442.5,935.5C 444.481,935.563 446.148,934.896 447.5,933.5C 445.874,932.01 444.208,930.51 442.5,929C 424.473,921.325 407.14,912.325 390.5,902C 388.981,900.649 387.648,899.149 386.5,897.5C 387.527,895.976 389.027,895.309 391,895.5C 410.684,898.829 430.517,900.329 450.5,900C 466.182,910.174 481.516,920.84 496.5,932C 516.073,942.283 535.406,952.783 554.5,963.5 Z"/></g>
<g><path style="opacity:1" fill="#6abbfc" d="M 198.5,903.5 C 201.152,903.41 203.485,904.076 205.5,905.5C 202.848,905.59 200.515,904.924 198.5,903.5 Z"/></g>
<g><path style="opacity:1" fill="#53bbff" d="M 220.5,904.5 C 221.627,905.122 222.627,905.955 223.5,907C 221.517,908.707 219.517,908.874 217.5,907.5C 218.873,907.657 220.207,907.49 221.5,907C 220.748,906.329 220.414,905.496 220.5,904.5 Z"/></g>
<g><path style="opacity:1" fill="#60baff" d="M 552.5,908.5 C 553.074,910.788 554.074,912.955 555.5,915C 553.86,915.348 552.527,914.848 551.5,913.5C 552.451,912.081 552.784,910.415 552.5,908.5 Z"/></g>
<g><path style="opacity:1" fill="#f5fafe" d="M 554.5,963.5 C 556.173,964.343 557.34,965.676 558,967.5C 565.556,993.943 576.889,1018.61 592,1041.5C 602.137,1052.64 612.637,1063.47 623.5,1074C 634.186,1082.34 645.519,1089.68 657.5,1096C 660.118,1098.11 662.118,1100.61 663.5,1103.5C 663.38,1104.59 662.713,1105.25 661.5,1105.5C 659.803,1105.1 658.137,1104.6 656.5,1104C 630.028,1088.99 606.862,1069.82 587,1046.5C 568.252,1021.71 557.419,994.044 554.5,963.5 Z"/></g>
<g><path style="opacity:1" fill="#7bc2fc" d="M 737.5,1113.5 C 744.05,1113.45 750.383,1114.12 756.5,1115.5C 749.938,1115.66 743.605,1115 737.5,1113.5 Z"/></g>
<g><path style="opacity:1" fill="#86d2fe" d="M 835.5,1192.5 C 832.603,1192.68 829.77,1192.35 827,1191.5C 826.5,1191.83 826,1192.17 825.5,1192.5C 826.193,1193.52 826.859,1194.52 827.5,1195.5C 825.078,1194.91 823.411,1193.41 822.5,1191C 827.069,1190.44 831.402,1190.94 835.5,1192.5 Z"/></g>
<g><path style="opacity:1" fill="#7cbddc" d="M 386.5,1192.5 C 385.094,1192.97 384.427,1193.97 384.5,1195.5C 382.852,1194.19 381.186,1192.86 379.5,1191.5C 382.141,1190.16 384.474,1190.5 386.5,1192.5 Z"/></g>
<g><path style="opacity:1" fill="#8fd5fe" d="M 884.5,1185.5 C 886.067,1186.68 886.901,1188.35 887,1190.5C 887.808,1194.03 887.641,1197.36 886.5,1200.5C 886.708,1195.36 886.041,1190.36 884.5,1185.5 Z"/></g>
<g><path style="opacity:1" fill="#78b1d4" d="M 349.5,1196.5 C 347.712,1196.21 346.045,1196.55 344.5,1197.5C 344.863,1198.18 345.196,1198.85 345.5,1199.5C 342.346,1198.53 341.346,1196.53 342.5,1193.5C 344.885,1194.66 347.219,1195.66 349.5,1196.5 Z"/></g>
<g><path style="opacity:1" fill="#0924ad" d="M 349.5,1196.5 C 355.974,1198.63 362.641,1199.79 369.5,1200C 374.129,1201.69 378.796,1203.19 383.5,1204.5C 384.936,1205.43 386.269,1206.6 387.5,1208C 389.197,1208.38 390.863,1208.22 392.5,1207.5C 394.549,1207.71 394.883,1208.54 393.5,1210C 380.076,1210.46 366.743,1208.46 353.5,1204C 350.848,1202.4 348.182,1200.9 345.5,1199.5C 345.196,1198.85 344.863,1198.18 344.5,1197.5C 346.045,1196.55 347.712,1196.21 349.5,1196.5 Z"/></g>
<g><path style="opacity:1" fill="#5ea2db" d="M 383.5,1204.5 C 386.509,1205.63 389.509,1206.63 392.5,1207.5C 390.863,1208.22 389.197,1208.38 387.5,1208C 386.269,1206.6 384.936,1205.43 383.5,1204.5 Z"/></g>
<g><path style="opacity:1" fill="#93d9fd" d="M 532.5,1206.5 C 531.391,1207.29 530.058,1207.79 528.5,1208C 524.179,1208.5 519.846,1208.67 515.5,1208.5C 520.96,1207.26 526.627,1206.6 532.5,1206.5 Z"/></g>
<g><path style="opacity:1" fill="#6fcffe" d="M 547.5,1214.5 C 547.804,1213.85 548.137,1213.18 548.5,1212.5C 546.955,1211.55 545.288,1211.21 543.5,1211.5C 547.102,1209.14 551.102,1208.31 555.5,1209C 556.833,1209.67 556.833,1210.33 555.5,1211C 552.495,1211.53 549.828,1212.7 547.5,1214.5 Z"/></g>
<g><path style="opacity:1" fill="#6ed7ff" d="M 421.5,1212.5 C 424.262,1213.38 426.929,1214.55 429.5,1216C 430.833,1216.67 430.833,1217.33 429.5,1218C 424.177,1218.5 418.844,1218.67 413.5,1218.5C 417.353,1217.83 421.353,1217.17 425.5,1216.5C 423.812,1215.48 422.479,1214.15 421.5,1212.5 Z"/></g>
<g><path style="opacity:1" fill="#8accf2" d="M 401.5,1218.5 C 387.992,1219.34 374.325,1220.18 360.5,1221C 358.273,1221.7 357.94,1222.87 359.5,1224.5C 356.123,1224.31 353.456,1222.81 351.5,1220C 368.148,1218.88 384.815,1218.38 401.5,1218.5 Z"/></g>
<g><path style="opacity:1" fill="#71d3ff" d="M 382.5,1229.5 C 387.267,1229.19 391.934,1229.69 396.5,1231C 396.833,1231.33 397.167,1231.67 397.5,1232C 394.479,1232.85 391.479,1233.68 388.5,1234.5C 389.765,1233.52 391.099,1232.52 392.5,1231.5C 389.023,1230.83 385.689,1230.17 382.5,1229.5 Z"/></g>
<g><path style="opacity:1" fill="#8bccf5" d="M 524.5,1226.5 C 524.5,1227.5 524.5,1228.5 524.5,1229.5C 527.073,1229.15 529.406,1229.65 531.5,1231C 528.927,1232.61 526.261,1234.11 523.5,1235.5C 524.007,1234.14 525.007,1233.14 526.5,1232.5C 520.593,1231.93 519.926,1229.93 524.5,1226.5 Z"/></g>
<g><path style="opacity:1" fill="#6ad6ff" d="M 431.5,1239.5 C 432.23,1238.29 433.23,1237.29 434.5,1236.5C 434.043,1235.7 433.376,1235.37 432.5,1235.5C 434.856,1232.8 437.523,1232.3 440.5,1234C 437.861,1236.48 434.861,1238.32 431.5,1239.5 Z"/></g>
<g><path style="opacity:1" fill="#6da0be" d="M 362.5,1242.5 C 362.833,1243.17 363.167,1243.83 363.5,1244.5C 361.396,1244.8 359.396,1244.47 357.5,1243.5C 359.045,1242.55 360.712,1242.21 362.5,1242.5 Z"/></g>
<g><path style="opacity:1" fill="#8ed8ff" d="M 395.5,1243.5 C 385.877,1245.53 376.211,1245.86 366.5,1244.5C 376.18,1244.48 385.847,1244.15 395.5,1243.5 Z"/></g>
<g><path style="opacity:1" fill="#061ca9" d="M 267.5,1362.5 C 264.753,1362.81 262.086,1362.48 259.5,1361.5C 259.863,1360.82 260.196,1360.15 260.5,1359.5C 264.167,1357.5 267.833,1355.5 271.5,1353.5C 275.893,1352.14 279.893,1349.97 283.5,1347C 279.023,1347.95 274.356,1348.61 269.5,1349C 268.584,1349.28 267.918,1349.78 267.5,1350.5C 265.05,1350.3 262.717,1350.63 260.5,1351.5C 257.171,1351.22 254.171,1351.88 251.5,1353.5C 238.987,1356.12 226.32,1358.45 213.5,1360.5C 209.21,1360.2 205.21,1360.86 201.5,1362.5C 195.505,1362.83 189.505,1363.17 183.5,1363.5C 180.5,1363.17 177.5,1362.83 174.5,1362.5C 175.243,1361.82 175.909,1361.15 176.5,1360.5C 177.791,1360.74 178.791,1360.4 179.5,1359.5C 181.179,1359.11 182.846,1358.61 184.5,1358C 185.833,1357 185.833,1356 184.5,1355C 179.316,1354.18 174.316,1354.35 169.5,1355.5C 160.726,1356.68 152.059,1357.68 143.5,1358.5C 129.314,1358.51 115.314,1359.18 101.5,1360.5C 87.1512,1360.83 72.8179,1360.5 58.5,1359.5C 59.1925,1358.48 59.8592,1357.48 60.5,1356.5C 79.6764,1352.24 98.6764,1347.07 117.5,1341C 142.206,1333.25 166.539,1325.09 190.5,1316.5C 192.898,1316.74 194.898,1316.07 196.5,1314.5C 209.804,1309.56 223.138,1304.56 236.5,1299.5C 238.853,1298.66 240.853,1297.33 242.5,1295.5C 238.685,1294.19 235.019,1294.19 231.5,1295.5C 225.661,1295.9 219.994,1296.57 214.5,1297.5C 214.167,1297.5 213.833,1297.5 213.5,1297.5C 208.566,1297.23 203.9,1297.9 199.5,1299.5C 193.601,1300.2 187.601,1300.87 181.5,1301.5C 161.873,1303.3 142.206,1303.8 122.5,1303C 120.606,1301.92 120.273,1300.59 121.5,1299C 124.036,1298.81 126.369,1298.31 128.5,1297.5C 134.315,1296.62 139.982,1295.62 145.5,1294.5C 148.428,1294.43 151.095,1293.77 153.5,1292.5C 166.594,1289.88 179.594,1286.88 192.5,1283.5C 195.228,1283.83 197.562,1283.16 199.5,1281.5C 205.823,1279.61 212.156,1277.94 218.5,1276.5C 222.567,1275.44 226.567,1274.27 230.5,1273C 229.833,1272.67 229.167,1272.33 228.5,1272C 220.525,1272.22 212.525,1272.39 204.5,1272.5C 200.353,1271.68 196.019,1271.18 191.5,1271C 189.593,1269.88 187.593,1269.04 185.5,1268.5C 185.414,1267.5 185.748,1266.67 186.5,1266C 192.734,1265.82 198.734,1264.99 204.5,1263.5C 215.312,1263.07 225.979,1261.74 236.5,1259.5C 239.428,1259.43 242.095,1258.77 244.5,1257.5C 269.723,1250.96 295.39,1248.79 321.5,1251C 327.022,1252.06 332.356,1253.73 337.5,1256C 322.145,1262.36 307.479,1270.02 293.5,1279C 292.663,1280.01 292.33,1281.18 292.5,1282.5C 303.312,1280.42 313.979,1278.26 324.5,1276C 324.833,1276.33 325.167,1276.67 325.5,1277C 320.312,1279.18 315.978,1282.52 312.5,1287C 313.333,1287.17 314.167,1287.33 315,1287.5C 321.614,1284.8 328.447,1282.64 335.5,1281C 340.787,1279.74 346.12,1279.4 351.5,1280C 343.09,1284.97 335.257,1290.8 328,1297.5C 326.674,1299.98 325.507,1302.48 324.5,1305C 324.261,1307.26 325.261,1308.43 327.5,1308.5C 335.881,1304.38 344.547,1300.88 353.5,1298C 364.491,1298.28 375.491,1298.28 386.5,1298C 390.586,1296.5 394.586,1295.16 398.5,1294C 394.421,1300.5 389.421,1306.17 383.5,1311C 347.929,1334.6 309.262,1351.77 267.5,1362.5 Z"/></g>
<g><path style="opacity:1" fill="#3783e8" d="M 244.5,1257.5 C 242.095,1258.77 239.428,1259.43 236.5,1259.5C 238.78,1257.78 241.447,1257.11 244.5,1257.5 Z"/></g>
<g><path style="opacity:1" fill="#8ed3f9" d="M 204.5,1263.5 C 198.734,1264.99 192.734,1265.82 186.5,1266C 185.748,1266.67 185.414,1267.5 185.5,1268.5C 183.073,1267.72 183.073,1266.55 185.5,1265C 191.817,1264.23 198.151,1263.73 204.5,1263.5 Z"/></g>
<g><path style="opacity:1" fill="#83c2e4" d="M 380.5,1264.5 C 379.375,1265.65 379.375,1266.65 380.5,1267.5C 377.016,1270.44 373.016,1271.11 368.5,1269.5C 371.08,1268 373.747,1266.5 376.5,1265C 377.793,1264.51 379.127,1264.34 380.5,1264.5 Z"/></g>
<g><path style="opacity:1" fill="#9cc0e2" d="M 456.5,1269.5 C 456.082,1270.22 455.416,1270.72 454.5,1271C 457.525,1271.36 460.525,1271.86 463.5,1272.5C 465.418,1272.86 465.751,1273.53 464.5,1274.5C 459.681,1273.43 454.681,1272.6 449.5,1272C 449.167,1271.67 448.833,1271.33 448.5,1271C 451.117,1270.18 453.784,1269.68 456.5,1269.5 Z"/></g>
<g><path style="opacity:1" fill="#60cbff" d="M 218.5,1276.5 C 218.5,1275.5 218.5,1274.5 218.5,1273.5C 213.637,1273.82 208.97,1273.49 204.5,1272.5C 212.525,1272.39 220.525,1272.22 228.5,1272C 229.167,1272.33 229.833,1272.67 230.5,1273C 226.567,1274.27 222.567,1275.44 218.5,1276.5 Z"/></g>
<g><path style="opacity:1" fill="#5dc7ff" d="M 491.5,1276.5 C 493.364,1275.21 495.364,1275.21 497.5,1276.5C 497.145,1277.52 496.478,1278.19 495.5,1278.5C 494.817,1276.82 493.483,1276.16 491.5,1276.5 Z"/></g>
<g><path style="opacity:1" fill="#64c1fd" d="M 199.5,1281.5 C 197.562,1283.16 195.228,1283.83 192.5,1283.5C 194.599,1282.39 196.933,1281.72 199.5,1281.5 Z"/></g>
<g><path style="opacity:1" fill="#65bafd" d="M 153.5,1292.5 C 151.095,1293.77 148.428,1294.43 145.5,1294.5C 147.838,1292.96 150.505,1292.29 153.5,1292.5 Z"/></g>
<g><path style="opacity:1" fill="#89dcff" d="M 236.5,1299.5 C 236.5,1298.5 236.5,1297.5 236.5,1296.5C 234.833,1296.5 233.167,1296.5 231.5,1296.5C 231.5,1296.17 231.5,1295.83 231.5,1295.5C 235.019,1294.19 238.685,1294.19 242.5,1295.5C 240.853,1297.33 238.853,1298.66 236.5,1299.5 Z"/></g>
<g><path style="opacity:1" fill="#4eaefc" d="M 231.5,1295.5 C 231.5,1295.83 231.5,1296.17 231.5,1296.5C 225.87,1297.29 220.203,1297.63 214.5,1297.5C 219.994,1296.57 225.661,1295.9 231.5,1295.5 Z"/></g>
<g><path style="opacity:1" fill="#368eeb" d="M 213.5,1297.5 C 209.057,1298.8 204.391,1299.47 199.5,1299.5C 203.9,1297.9 208.566,1297.23 213.5,1297.5 Z"/></g>
<g><path style="opacity:1" fill="#98d5f8" d="M 128.5,1297.5 C 126.369,1298.31 124.036,1298.81 121.5,1299C 120.273,1300.59 120.606,1301.92 122.5,1303C 142.206,1303.8 161.873,1303.3 181.5,1301.5C 175.363,1302.72 169.029,1303.55 162.5,1304C 148.833,1304.67 135.167,1304.67 121.5,1304C 119.913,1303.14 118.246,1302.47 116.5,1302C 115.663,1300.99 115.33,1299.82 115.5,1298.5C 119.81,1297.92 124.143,1297.59 128.5,1297.5 Z"/></g>
<g><path style="opacity:1" fill="#3973dd" d="M 196.5,1314.5 C 194.898,1316.07 192.898,1316.74 190.5,1316.5C 192.102,1314.93 194.102,1314.26 196.5,1314.5 Z"/></g>
<g><path style="opacity:1" fill="#81d0fd" d="M 271.5,1353.5 C 271.5,1352.5 271.5,1351.5 271.5,1350.5C 270.167,1350.5 268.833,1350.5 267.5,1350.5C 267.918,1349.78 268.584,1349.28 269.5,1349C 274.356,1348.61 279.023,1347.95 283.5,1347C 279.893,1349.97 275.893,1352.14 271.5,1353.5 Z"/></g>
<g><path style="opacity:1" fill="#61b6fb" d="M 260.5,1351.5 C 257.727,1352.66 254.727,1353.32 251.5,1353.5C 254.171,1351.88 257.171,1351.22 260.5,1351.5 Z"/></g>
<g><path style="opacity:1" fill="#3fa6f9" d="M 169.5,1355.5 C 174.316,1354.35 179.316,1354.18 184.5,1355C 185.833,1356 185.833,1357 184.5,1358C 182.846,1358.61 181.179,1359.11 179.5,1359.5C 180.483,1358.15 181.816,1357.15 183.5,1356.5C 179.555,1355.51 175.555,1355.18 171.5,1355.5C 170.833,1355.5 170.167,1355.5 169.5,1355.5 Z"/></g>
<g><path style="opacity:1" fill="#b7e5fd" d="M 169.5,1355.5 C 170.167,1355.5 170.833,1355.5 171.5,1355.5C 168.512,1357.14 165.179,1357.97 161.5,1358C 155.509,1358.5 149.509,1358.67 143.5,1358.5C 152.059,1357.68 160.726,1356.68 169.5,1355.5 Z"/></g>
<g><path style="opacity:1" fill="#6aadec" d="M 60.5,1356.5 C 59.8592,1357.48 59.1925,1358.48 58.5,1359.5C 72.8179,1360.5 87.1512,1360.83 101.5,1360.5C 85.6617,1361.83 69.6617,1361.83 53.5,1360.5C 55.3637,1358.4 57.6971,1357.07 60.5,1356.5 Z"/></g>
<g><path style="opacity:1" fill="#72c0f8" d="M 213.5,1360.5 C 209.705,1361.62 205.705,1362.28 201.5,1362.5C 205.21,1360.86 209.21,1360.2 213.5,1360.5 Z"/></g>
<g><path style="opacity:1" fill="#6cb6f0" d="M 260.5,1359.5 C 260.196,1360.15 259.863,1360.82 259.5,1361.5C 262.086,1362.48 264.753,1362.81 267.5,1362.5C 264.375,1363.48 261.042,1363.81 257.5,1363.5C 257.088,1361.03 258.088,1359.69 260.5,1359.5 Z"/></g>
<g><path style="opacity:1" fill="#8ecefb" d="M 176.5,1360.5 C 175.909,1361.15 175.243,1361.82 174.5,1362.5C 177.5,1362.83 180.5,1363.17 183.5,1363.5C 189.505,1363.17 195.505,1362.83 201.5,1362.5C 200.048,1363.3 198.382,1363.8 196.5,1364C 188.507,1364.5 180.507,1364.67 172.5,1364.5C 172.167,1361.5 173.5,1360.17 176.5,1360.5 Z"/></g>
<g><path style="opacity:1" fill="#42cbff" d="M 829.5,1394.5 C 850.169,1394.33 870.836,1394.5 891.5,1395C 892.483,1403.41 892.817,1411.91 892.5,1420.5C 865.53,1421.31 838.53,1421.81 811.5,1422C 811,1422.5 810.5,1423 810,1423.5C 809.558,1463.17 809.558,1502.84 810,1542.5C 809.5,1543 809,1543.5 808.5,1544C 800.5,1544.67 792.5,1544.67 784.5,1544C 783.773,1542.6 783.273,1541.1 783,1539.5C 782.982,1501.11 782.315,1462.77 781,1424.5C 780.5,1424 780,1423.5 779.5,1423C 774.667,1422.83 769.833,1422.67 765,1422.5C 743.505,1423.47 722.005,1423.64 700.5,1423C 699.584,1422.63 698.75,1422.13 698,1421.5C 697.333,1413.5 697.333,1405.5 698,1397.5C 698.75,1396.87 699.584,1396.37 700.5,1396C 743.669,1395.83 786.669,1395.33 829.5,1394.5 Z"/></g>
<g><path style="opacity:1" fill="#197bec" d="M 569.5,1397.5 C 594.836,1397.33 620.169,1397.5 645.5,1398C 650.406,1398.79 654.74,1400.63 658.5,1403.5C 653.422,1401.44 648.088,1399.94 642.5,1399C 601.833,1398.71 561.166,1398.88 520.5,1399.5C 536.833,1398.83 553.167,1398.17 569.5,1397.5 Z"/></g>
<g><path style="opacity:1" fill="#44ccff" d="M 310.5,1398.5 C 362.167,1398.5 413.833,1398.5 465.5,1398.5C 465.5,1407.17 465.5,1415.83 465.5,1424.5C 414.189,1425.22 362.856,1426.06 311.5,1427C 310.175,1437.8 310.175,1448.64 311.5,1459.5C 355.358,1460.83 399.192,1460.83 443,1459.5C 444.892,1459.78 446.225,1460.78 447,1462.5C 447.667,1469.83 447.667,1477.17 447,1484.5C 446.097,1485.7 444.931,1486.53 443.5,1487C 399.833,1487.33 356.167,1487.67 312.5,1488C 312,1488.5 311.5,1489 311,1489.5C 310.191,1499.88 310.358,1510.21 311.5,1520.5C 362.831,1521.14 414.164,1521.31 465.5,1521C 466,1521.5 466.5,1522 467,1522.5C 467.667,1530.17 467.667,1537.83 467,1545.5C 466.5,1546 466,1546.5 465.5,1547C 405.505,1548.34 345.505,1548.67 285.5,1548C 284.809,1546.93 284.309,1545.77 284,1544.5C 283.621,1497.48 283.288,1450.48 283,1403.5C 283.309,1402.23 283.809,1401.07 284.5,1400C 293.343,1399.83 302.01,1399.33 310.5,1398.5 Z"/></g>
<g><path style="opacity:1" fill="#0640db" d="M 658.5,1403.5 C 660.891,1404.98 663.224,1406.65 665.5,1408.5C 665.238,1409.98 665.571,1411.31 666.5,1412.5C 669.779,1416.09 672.446,1420.09 674.5,1424.5C 674.5,1424.83 674.5,1425.17 674.5,1425.5C 674.5,1429.17 674.5,1432.83 674.5,1436.5C 667.167,1436.5 659.833,1436.5 652.5,1436.5C 651.883,1436.39 651.383,1436.06 651,1435.5C 651.435,1431.14 649.935,1427.81 646.5,1425.5C 646.027,1424.09 645.027,1423.43 643.5,1423.5C 643.389,1422.88 643.056,1422.38 642.5,1422C 626.994,1421.17 611.661,1421.34 596.5,1422.5C 571.994,1422.17 547.661,1422.5 523.5,1423.5C 523.167,1424.17 522.833,1424.83 522.5,1425.5C 521.833,1425.5 521.167,1425.5 520.5,1425.5C 518.26,1426.57 516.426,1428.23 515,1430.5C 514.333,1437.83 514.333,1445.17 515,1452.5C 516.039,1453.71 517.206,1454.71 518.5,1455.5C 519.16,1458.65 521.16,1460.15 524.5,1460C 566.165,1460.5 607.832,1460.67 649.5,1460.5C 652.48,1462.76 655.813,1464.42 659.5,1465.5C 662.427,1466.76 664.761,1468.76 666.5,1471.5C 667.08,1473.75 668.413,1475.42 670.5,1476.5C 671.603,1480.5 673.269,1484.16 675.5,1487.5C 676.802,1497.5 676.802,1507.5 675.5,1517.5C 674.85,1517.8 674.183,1518.14 673.5,1518.5C 670.391,1529.21 663.724,1536.71 653.5,1541C 649.991,1541.42 646.657,1542.42 643.5,1544C 603.501,1544.5 563.501,1544.67 523.5,1544.5C 519.864,1543.67 516.197,1543.01 512.5,1542.5C 510.429,1541.11 508.762,1539.28 507.5,1537C 505.846,1536.39 504.179,1535.89 502.5,1535.5C 501.92,1533.25 500.587,1531.58 498.5,1530.5C 497.026,1529.56 496.026,1528.23 495.5,1526.5C 493.007,1520.44 492.007,1514.11 492.5,1507.5C 499.833,1507.5 507.167,1507.5 514.5,1507.5C 514.092,1513.04 516.425,1516.7 521.5,1518.5C 521.804,1519.15 522.137,1519.82 522.5,1520.5C 561.829,1521.67 601.162,1521.83 640.5,1521C 641.737,1520.77 642.737,1520.27 643.5,1519.5C 647.02,1518.82 649.52,1516.82 651,1513.5C 651.821,1506.32 651.655,1499.32 650.5,1492.5C 650.771,1490.62 650.104,1489.29 648.5,1488.5C 646.651,1485.42 643.984,1483.75 640.5,1483.5C 599.67,1482.5 558.67,1482.17 517.5,1482.5C 513.203,1480.18 508.869,1478.18 504.5,1476.5C 503.833,1473.83 502.167,1472.17 499.5,1471.5C 498.551,1469.22 497.218,1467.22 495.5,1465.5C 495.167,1464.17 494.833,1462.83 494.5,1461.5C 492.637,1451.64 491.971,1441.64 492.5,1431.5C 492.775,1421.41 497.109,1413.25 505.5,1407C 510.592,1404.45 515.592,1401.95 520.5,1399.5C 561.166,1398.88 601.833,1398.71 642.5,1399C 648.088,1399.94 653.422,1401.44 658.5,1403.5 Z"/></g>
<g><path style="opacity:1" fill="#2d87f2" d="M 215.5,1401.5 C 216.167,1402.17 216.833,1402.83 217.5,1403.5C 194.533,1402.53 171.533,1402.2 148.5,1402.5C 117.167,1402.5 85.8333,1402.5 54.5,1402.5C 97.666,1401.63 140.999,1400.97 184.5,1400.5C 194.908,1400.51 205.241,1400.84 215.5,1401.5 Z"/></g>
<g><path style="opacity:1" fill="#065fe5" d="M 54.5,1402.5 C 85.8333,1402.5 117.167,1402.5 148.5,1402.5C 117.671,1403.5 86.6712,1403.83 55.5,1403.5C 55.5,1422.17 55.5,1440.83 55.5,1459.5C 54.503,1440.67 54.1697,1421.67 54.5,1402.5 Z"/></g>
<g><path style="opacity:1" fill="#0540db" d="M 148.5,1402.5 C 171.533,1402.2 194.533,1402.53 217.5,1403.5C 219.927,1403.52 222.26,1404.02 224.5,1405C 227.309,1406.32 229.975,1407.82 232.5,1409.5C 234.404,1409.74 235.738,1410.74 236.5,1412.5C 237.757,1415.43 239.757,1417.76 242.5,1419.5C 242.884,1421.93 243.551,1424.26 244.5,1426.5C 246.82,1437.66 247.154,1448.99 245.5,1460.5C 244.986,1462.87 243.82,1464.87 242,1466.5C 241.503,1468.81 241.337,1471.14 241.5,1473.5C 244.5,1473.17 245.833,1474.5 245.5,1477.5C 247.905,1478.69 250.239,1480.19 252.5,1482C 253.053,1483.88 254.053,1485.38 255.5,1486.5C 257.074,1488.1 257.741,1490.1 257.5,1492.5C 261.169,1510.75 256.503,1526.25 243.5,1539C 238.552,1542.16 233.552,1544.99 228.5,1547.5C 228.167,1547.5 227.833,1547.5 227.5,1547.5C 198.858,1548.47 170.192,1548.8 141.5,1548.5C 113.167,1548.5 84.8333,1548.5 56.5,1548.5C 56.831,1523.66 56.4977,1498.99 55.5,1474.5C 55.5,1469.5 55.5,1464.5 55.5,1459.5C 55.5,1440.83 55.5,1422.17 55.5,1403.5C 86.6712,1403.83 117.671,1403.5 148.5,1402.5 Z"/></g>
<g><path style="opacity:1" fill="#52a3f5" d="M 215.5,1401.5 C 222.389,1401.89 228.056,1404.56 232.5,1409.5C 229.975,1407.82 227.309,1406.32 224.5,1405C 222.26,1404.02 219.927,1403.52 217.5,1403.5C 216.833,1402.83 216.167,1402.17 215.5,1401.5 Z"/></g>
<g><path style="opacity:1" fill="#4e98ef" d="M 665.5,1408.5 C 670.221,1412.88 673.221,1418.22 674.5,1424.5C 672.446,1420.09 669.779,1416.09 666.5,1412.5C 665.571,1411.31 665.238,1409.98 665.5,1408.5 Z"/></g>
<g><path style="opacity:1" fill="#4296ef" d="M 236.5,1412.5 C 239.243,1414.24 241.243,1416.57 242.5,1419.5C 239.757,1417.76 237.757,1415.43 236.5,1412.5 Z"/></g>
<g><path style="opacity:1" fill="#4498f1" d="M 569.5,1397.5 C 553.167,1398.17 536.833,1398.83 520.5,1399.5C 515.592,1401.95 510.592,1404.45 505.5,1407C 497.109,1413.25 492.775,1421.41 492.5,1431.5C 491.508,1438.98 491.175,1446.65 491.5,1454.5C 490.833,1454.5 490.5,1454.17 490.5,1453.5C 490.284,1444.47 490.617,1435.47 491.5,1426.5C 493.38,1418.27 497.713,1411.43 504.5,1406C 509.097,1402.54 514.097,1399.87 519.5,1398C 536.163,1397.5 552.83,1397.33 569.5,1397.5 Z"/></g>
<g><path style="opacity:1" fill="#0876e6" d="M 596.5,1422.5 C 611.661,1421.34 626.994,1421.17 642.5,1422C 643.056,1422.38 643.389,1422.88 643.5,1423.5C 627.881,1422.53 612.214,1422.2 596.5,1422.5 Z"/></g>
<g><path style="opacity:1" fill="#3b8beb" d="M 242.5,1419.5 C 245.125,1422.7 246.791,1426.36 247.5,1430.5C 246.143,1429.41 245.143,1428.08 244.5,1426.5C 243.551,1424.26 242.884,1421.93 242.5,1419.5 Z"/></g>
<g><path style="opacity:1" fill="#5faefa" d="M 523.5,1423.5 C 547.661,1422.5 571.994,1422.17 596.5,1422.5C 612.214,1422.2 627.881,1422.53 643.5,1423.5C 645.027,1423.43 646.027,1424.09 646.5,1425.5C 644.518,1425 642.518,1424.5 640.5,1424C 623.837,1423.5 607.17,1423.33 590.5,1423.5C 568.167,1423.5 545.833,1423.5 523.5,1423.5 Z"/></g>
<g><path style="opacity:1" fill="#afe6ff" d="M 523.5,1423.5 C 545.833,1423.5 568.167,1423.5 590.5,1423.5C 567.961,1424.19 545.294,1424.85 522.5,1425.5C 522.833,1424.83 523.167,1424.17 523.5,1423.5 Z"/></g>
<g><path style="opacity:1" fill="#55a9f8" d="M 217.5,1429.5 C 216.078,1429.29 214.745,1428.79 213.5,1428C 190.836,1427.5 168.169,1427.33 145.5,1427.5C 124.167,1427.5 102.833,1427.5 81.5,1427.5C 81.5,1427.17 81.5,1426.83 81.5,1426.5C 125.331,1425.34 169.331,1425.17 213.5,1426C 215.324,1426.66 216.657,1427.83 217.5,1429.5 Z"/></g>
<g><path style="opacity:1" fill="#bbf1ff" d="M 81.5,1427.5 C 102.833,1427.5 124.167,1427.5 145.5,1427.5C 124.34,1428.5 103.007,1428.83 81.5,1428.5C 81.1797,1439.41 81.513,1450.25 82.5,1461C 121.161,1460.75 159.828,1460.59 198.5,1460.5C 174.833,1461.17 151.167,1461.83 127.5,1462.5C 112.167,1462.5 96.8333,1462.5 81.5,1462.5C 80.8333,1462.17 80.1667,1461.83 79.5,1461.5C 79.3335,1450.49 79.5002,1439.49 80,1428.5C 80.3826,1427.94 80.8826,1427.61 81.5,1427.5 Z"/></g>
<g><path style="opacity:1" fill="#fefeff" d="M 145.5,1427.5 C 168.169,1427.33 190.836,1427.5 213.5,1428C 214.745,1428.79 216.078,1429.29 217.5,1429.5C 218.167,1430.5 218.833,1431.5 219.5,1432.5C 222.382,1439.15 223.215,1446.15 222,1453.5C 220.294,1454.31 219.461,1455.64 219.5,1457.5C 217.745,1458.07 216.078,1458.91 214.5,1460C 209.177,1460.5 203.844,1460.67 198.5,1460.5C 159.828,1460.59 121.161,1460.75 82.5,1461C 81.513,1450.25 81.1797,1439.41 81.5,1428.5C 103.007,1428.83 124.34,1428.5 145.5,1427.5 Z"/></g>
<g><path style="opacity:1" fill="#328df3" d="M 217.5,1429.5 C 220.833,1430.17 222.833,1432.17 223.5,1435.5C 222.167,1434.5 220.833,1433.5 219.5,1432.5C 218.833,1431.5 218.167,1430.5 217.5,1429.5 Z"/></g>
<g><path style="opacity:1" fill="#238af6" d="M 520.5,1425.5 C 519.154,1427.54 517.82,1429.54 516.5,1431.5C 515.346,1437.99 515.179,1444.65 516,1451.5C 516.383,1452.06 516.883,1452.39 517.5,1452.5C 518.11,1453.39 518.443,1454.39 518.5,1455.5C 517.206,1454.71 516.039,1453.71 515,1452.5C 514.333,1445.17 514.333,1437.83 515,1430.5C 516.426,1428.23 518.26,1426.57 520.5,1425.5 Z"/></g>
<g><path style="opacity:1" fill="#7acefe" d="M 516.5,1431.5 C 516.24,1438.56 516.573,1445.56 517.5,1452.5C 516.883,1452.39 516.383,1452.06 516,1451.5C 515.179,1444.65 515.346,1437.99 516.5,1431.5 Z"/></g>
<g><path style="opacity:1" fill="#2a8ff0" d="M 674.5,1425.5 C 675.833,1429.5 675.833,1433.5 674.5,1437.5C 666.981,1437.82 659.648,1437.49 652.5,1436.5C 659.833,1436.5 667.167,1436.5 674.5,1436.5C 674.5,1432.83 674.5,1429.17 674.5,1425.5 Z"/></g>
<g><path style="opacity:1" fill="#a5ddfd" d="M 646.5,1425.5 C 649.935,1427.81 651.435,1431.14 651,1435.5C 651.383,1436.06 651.883,1436.39 652.5,1436.5C 659.648,1437.49 666.981,1437.82 674.5,1437.5C 667.011,1438.66 659.345,1438.82 651.5,1438C 649.61,1433.96 647.944,1429.8 646.5,1425.5 Z"/></g>
<g><path style="opacity:1" fill="#1487ec" d="M 81.5,1426.5 C 81.5,1426.83 81.5,1427.17 81.5,1427.5C 80.8826,1427.61 80.3826,1427.94 80,1428.5C 79.5002,1439.49 79.3335,1450.49 79.5,1461.5C 78.3407,1450.34 78.1741,1439.01 79,1427.5C 79.6708,1426.75 80.5041,1426.41 81.5,1426.5 Z"/></g>
<g><path style="opacity:1" fill="#0c58e1" d="M 244.5,1426.5 C 245.143,1428.08 246.143,1429.41 247.5,1430.5C 248.493,1438.98 248.826,1447.65 248.5,1456.5C 247.143,1457.59 246.143,1458.92 245.5,1460.5C 247.154,1448.99 246.82,1437.66 244.5,1426.5 Z"/></g>
<g><path style="opacity:1" fill="#7bc5fe" d="M 491.5,1426.5 C 490.617,1435.47 490.284,1444.47 490.5,1453.5C 489.344,1445.68 489.177,1437.68 490,1429.5C 490.232,1428.26 490.732,1427.26 491.5,1426.5 Z"/></g>
<g><path style="opacity:1" fill="#1960e1" d="M 492.5,1431.5 C 491.971,1441.64 492.637,1451.64 494.5,1461.5C 493.833,1461.17 493.167,1460.83 492.5,1460.5C 491.539,1458.74 491.205,1456.74 491.5,1454.5C 491.175,1446.65 491.508,1438.98 492.5,1431.5 Z"/></g>
<g><path style="opacity:1" fill="#75bef8" d="M 219.5,1432.5 C 220.833,1433.5 222.167,1434.5 223.5,1435.5C 225.178,1442.67 224.678,1449.67 222,1456.5C 221.329,1457.25 220.496,1457.59 219.5,1457.5C 219.461,1455.64 220.294,1454.31 222,1453.5C 223.215,1446.15 222.382,1439.15 219.5,1432.5 Z"/></g>
<g><path style="opacity:1" fill="#64aef7" d="M 518.5,1455.5 C 519.882,1456.8 521.548,1457.63 523.5,1458C 563.833,1458.33 604.167,1458.67 644.5,1459C 646.382,1459.2 648.048,1459.7 649.5,1460.5C 607.832,1460.67 566.165,1460.5 524.5,1460C 521.16,1460.15 519.16,1458.65 518.5,1455.5 Z"/></g>
<g><path style="opacity:1" fill="#82c9fe" d="M 219.5,1457.5 C 218.198,1459.82 216.198,1461.16 213.5,1461.5C 184.865,1462.48 156.198,1462.81 127.5,1462.5C 151.167,1461.83 174.833,1461.17 198.5,1460.5C 203.844,1460.67 209.177,1460.5 214.5,1460C 216.078,1458.91 217.745,1458.07 219.5,1457.5 Z"/></g>
<g><path style="opacity:1" fill="#4a99f0" d="M 649.5,1460.5 C 653.674,1460.66 657.008,1462.33 659.5,1465.5C 655.813,1464.42 652.48,1462.76 649.5,1460.5 Z"/></g>
<g><path style="opacity:1" fill="#419ff4" d="M 213.5,1461.5 C 213.082,1462.22 212.416,1462.72 211.5,1463C 203.507,1463.5 195.507,1463.67 187.5,1463.5C 151.996,1463.83 116.663,1463.5 81.5,1462.5C 96.8333,1462.5 112.167,1462.5 127.5,1462.5C 156.198,1462.81 184.865,1462.48 213.5,1461.5 Z"/></g>
<g><path style="opacity:1" fill="#53a4ef" d="M 492.5,1460.5 C 493.167,1460.83 493.833,1461.17 494.5,1461.5C 494.833,1462.83 495.167,1464.17 495.5,1465.5C 493.273,1464.6 492.273,1462.93 492.5,1460.5 Z"/></g>
<g><path style="opacity:1" fill="#0875e7" d="M 79.5,1461.5 C 80.1667,1461.83 80.8333,1462.17 81.5,1462.5C 116.663,1463.5 151.996,1463.83 187.5,1463.5C 152.002,1464.66 116.336,1464.83 80.5,1464C 79.7476,1463.33 79.4142,1462.5 79.5,1461.5 Z"/></g>
<g><path style="opacity:1" fill="#499df2" d="M 495.5,1465.5 C 497.218,1467.22 498.551,1469.22 499.5,1471.5C 496.956,1470.29 495.622,1468.29 495.5,1465.5 Z"/></g>
<g><path style="opacity:1" fill="#2a85ec" d="M 499.5,1471.5 C 502.167,1472.17 503.833,1473.83 504.5,1476.5C 502.5,1475.17 500.833,1473.5 499.5,1471.5 Z"/></g>
<g><path style="opacity:1" fill="#377ce9" d="M 248.5,1456.5 C 247.384,1460.73 245.717,1464.73 243.5,1468.5C 246.778,1472.95 250.278,1477.29 254,1481.5C 254.608,1483.15 255.108,1484.82 255.5,1486.5C 254.053,1485.38 253.053,1483.88 252.5,1482C 250.239,1480.19 247.905,1478.69 245.5,1477.5C 245.833,1474.5 244.5,1473.17 241.5,1473.5C 241.337,1471.14 241.503,1468.81 242,1466.5C 243.82,1464.87 244.986,1462.87 245.5,1460.5C 246.143,1458.92 247.143,1457.59 248.5,1456.5 Z"/></g>
<g><path style="opacity:1" fill="#3991ef" d="M 666.5,1471.5 C 668.587,1472.58 669.92,1474.25 670.5,1476.5C 668.413,1475.42 667.08,1473.75 666.5,1471.5 Z"/></g>
<g><path style="opacity:1" fill="#499df0" d="M 670.5,1476.5 C 673.496,1479.5 675.163,1483.16 675.5,1487.5C 673.269,1484.16 671.603,1480.5 670.5,1476.5 Z"/></g>
<g><path style="opacity:1" fill="#0763e0" d="M 517.5,1482.5 C 558.67,1482.17 599.67,1482.5 640.5,1483.5C 606.994,1483.29 573.494,1483.62 540,1484.5C 532.272,1484.68 524.772,1484.02 517.5,1482.5 Z"/></g>
<g><path style="opacity:1" fill="#5ca9f1" d="M 504.5,1476.5 C 508.869,1478.18 513.203,1480.18 517.5,1482.5C 524.772,1484.02 532.272,1484.68 540,1484.5C 573.494,1483.62 606.994,1483.29 640.5,1483.5C 643.984,1483.75 646.651,1485.42 648.5,1488.5C 646.804,1488.31 645.471,1487.48 644.5,1486C 603.833,1485.67 563.167,1485.33 522.5,1485C 515.506,1484.15 509.506,1481.31 504.5,1476.5 Z"/></g>
<g><path style="opacity:1" fill="#055ae1" d="M 153.5,1486.5 C 175.996,1485.34 198.663,1485.17 221.5,1486C 223.058,1486.21 224.391,1486.71 225.5,1487.5C 223.833,1487.5 222.167,1487.5 220.5,1487.5C 198.34,1486.5 176.006,1486.17 153.5,1486.5 Z"/></g>
<g><path style="opacity:1" fill="#71bafa" d="M 220.5,1487.5 C 222.167,1487.5 223.833,1487.5 225.5,1487.5C 228.543,1489.54 230.876,1492.21 232.5,1495.5C 231.167,1494.5 229.833,1493.5 228.5,1492.5C 227.657,1490.83 226.324,1489.66 224.5,1489C 200.996,1488.17 177.663,1488.34 154.5,1489.5C 145.833,1489.5 137.167,1489.5 128.5,1489.5C 112.833,1489.5 97.1667,1489.5 81.5,1489.5C 127.661,1488.18 173.994,1487.51 220.5,1487.5 Z"/></g>
<g><path style="opacity:1" fill="#b1ebff" d="M 154.5,1489.5 C 177.663,1488.34 200.996,1488.17 224.5,1489C 226.324,1489.66 227.657,1490.83 228.5,1492.5C 226.745,1491.93 225.078,1491.09 223.5,1490C 200.502,1489.5 177.502,1489.33 154.5,1489.5 Z"/></g>
<g><path style="opacity:1" fill="#fefeff" d="M 128.5,1489.5 C 137.167,1489.5 145.833,1489.5 154.5,1489.5C 177.502,1489.33 200.502,1489.5 223.5,1490C 225.078,1491.09 226.745,1491.93 228.5,1492.5C 230.946,1496.41 231.946,1500.74 231.5,1505.5C 232.182,1511.11 230.849,1516.11 227.5,1520.5C 226.078,1520.71 224.745,1521.21 223.5,1522C 176.5,1522.67 129.5,1522.67 82.5,1522C 81.5134,1511.58 81.1801,1501.08 81.5,1490.5C 97.3422,1490.83 113.009,1490.5 128.5,1489.5 Z"/></g>
<g><path style="opacity:1" fill="#4c9bf0" d="M 54.5,1402.5 C 54.1697,1421.67 54.503,1440.67 55.5,1459.5C 55.5,1464.5 55.5,1469.5 55.5,1474.5C 55.5,1499.5 55.5,1524.5 55.5,1549.5C 53.7565,1500.51 53.4231,1451.51 54.5,1402.5 Z"/></g>
<g><path style="opacity:1" fill="#b9f6fe" d="M 81.5,1489.5 C 97.1667,1489.5 112.833,1489.5 128.5,1489.5C 113.009,1490.5 97.3422,1490.83 81.5,1490.5C 81.1801,1501.08 81.5134,1511.58 82.5,1522C 129.5,1522.67 176.5,1522.67 223.5,1522C 224.745,1521.21 226.078,1520.71 227.5,1520.5C 226.341,1522.25 224.674,1523.25 222.5,1523.5C 175.167,1523.5 127.833,1523.5 80.5,1523.5C 80.1719,1511.99 80.5052,1500.65 81.5,1489.5 Z"/></g>
<g><path style="opacity:1" fill="#398ded" d="M 257.5,1492.5 C 263.661,1515.34 256.661,1532.84 236.5,1545C 233.846,1545.94 231.179,1546.77 228.5,1547.5C 233.552,1544.99 238.552,1542.16 243.5,1539C 256.503,1526.25 261.169,1510.75 257.5,1492.5 Z"/></g>
<g><path style="opacity:1" fill="#abe4fe" d="M 228.5,1492.5 C 229.833,1493.5 231.167,1494.5 232.5,1495.5C 232.5,1496.17 232.5,1496.83 232.5,1497.5C 233.752,1503.16 233.752,1508.83 232.5,1514.5C 231.527,1517.13 229.86,1519.13 227.5,1520.5C 230.849,1516.11 232.182,1511.11 231.5,1505.5C 231.946,1500.74 230.946,1496.41 228.5,1492.5 Z"/></g>
<g><path style="opacity:1" fill="#4ca4f8" d="M 232.5,1497.5 C 233.222,1497.92 233.722,1498.58 234,1499.5C 234.667,1504.17 234.667,1508.83 234,1513.5C 233.617,1514.06 233.117,1514.39 232.5,1514.5C 233.752,1508.83 233.752,1503.16 232.5,1497.5 Z"/></g>
<g><path style="opacity:1" fill="#3b8ef0" d="M 521.5,1518.5 C 516.425,1516.7 514.092,1513.04 514.5,1507.5C 507.167,1507.5 499.833,1507.5 492.5,1507.5C 492.007,1514.11 493.007,1520.44 495.5,1526.5C 493.306,1524.78 492.139,1522.45 492,1519.5C 490.584,1515.31 490.417,1511.14 491.5,1507C 499.5,1506.33 507.5,1506.33 515.5,1507C 516.585,1511.34 518.585,1515.17 521.5,1518.5 Z"/></g>
<g><path style="opacity:1" fill="#2a8ef1" d="M 153.5,1486.5 C 176.006,1486.17 198.34,1486.5 220.5,1487.5C 173.994,1487.51 127.661,1488.18 81.5,1489.5C 80.5052,1500.65 80.1719,1511.99 80.5,1523.5C 79.3405,1512.01 79.1739,1500.34 80,1488.5C 80.5,1488 81,1487.5 81.5,1487C 105.498,1486.5 129.498,1486.33 153.5,1486.5 Z"/></g>
<g><path style="opacity:1" fill="#3b93ed" d="M 650.5,1492.5 C 651.655,1499.32 651.821,1506.32 651,1513.5C 649.52,1516.82 647.02,1518.82 643.5,1519.5C 646.139,1517.69 648.306,1515.36 650,1512.5C 650.5,1505.84 650.666,1499.17 650.5,1492.5 Z"/></g>
<g><path style="opacity:1" fill="#107df1" d="M 521.5,1518.5 C 522.756,1518.46 523.756,1518.96 524.5,1520C 564.182,1520.8 603.849,1520.63 643.5,1519.5C 642.737,1520.27 641.737,1520.77 640.5,1521C 601.162,1521.83 561.829,1521.67 522.5,1520.5C 522.137,1519.82 521.804,1519.15 521.5,1518.5 Z"/></g>
<g><path style="opacity:1" fill="#2781f2" d="M 80.5,1523.5 C 127.833,1523.5 175.167,1523.5 222.5,1523.5C 175.677,1525.38 128.677,1525.88 81.5,1525C 80.944,1524.62 80.6107,1524.12 80.5,1523.5 Z"/></g>
<g><path style="opacity:1" fill="#3c98ed" d="M 498.5,1530.5 C 500.587,1531.58 501.92,1533.25 502.5,1535.5C 500.413,1534.42 499.08,1532.75 498.5,1530.5 Z"/></g>
<g><path style="opacity:1" fill="#367eea" d="M 502.5,1535.5 C 504.179,1535.89 505.846,1536.39 507.5,1537C 508.762,1539.28 510.429,1541.11 512.5,1542.5C 508.608,1540.94 505.275,1538.6 502.5,1535.5 Z"/></g>
<g><path style="opacity:1" fill="#2683ee" d="M 675.5,1517.5 C 671.24,1532.26 661.574,1541.42 646.5,1545C 617.835,1545.5 589.169,1545.67 560.5,1545.5C 547.989,1545.83 535.655,1545.5 523.5,1544.5C 563.501,1544.67 603.501,1544.5 643.5,1544C 646.657,1542.42 649.991,1541.42 653.5,1541C 663.724,1536.71 670.391,1529.21 673.5,1518.5C 674.183,1518.14 674.85,1517.8 675.5,1517.5 Z"/></g>
<g><path style="opacity:1" fill="#369df9" d="M 512.5,1542.5 C 516.197,1543.01 519.864,1543.67 523.5,1544.5C 535.655,1545.5 547.989,1545.83 560.5,1545.5C 547.673,1546.66 534.673,1546.83 521.5,1546C 518.135,1545.49 515.135,1544.33 512.5,1542.5 Z"/></g>
<g><path style="opacity:1" fill="#076de7" d="M 55.5,1474.5 C 56.4977,1498.99 56.831,1523.66 56.5,1548.5C 84.8333,1548.5 113.167,1548.5 141.5,1548.5C 113.005,1549.5 84.3382,1549.83 55.5,1549.5C 55.5,1524.5 55.5,1499.5 55.5,1474.5 Z"/></g>
<g><path style="opacity:1" fill="#75c6fe" d="M 227.5,1547.5 C 226.737,1548.27 225.737,1548.77 224.5,1549C 168.004,1550.47 111.671,1550.64 55.5,1549.5C 84.3382,1549.83 113.005,1549.5 141.5,1548.5C 170.192,1548.8 198.858,1548.47 227.5,1547.5 Z"/></g>
</svg>
