<?xml version="1.0" standalone="no"?>
<!DOCTYPE svg PUBLIC "-//W3C//DTD SVG 20010904//EN"
 "http://www.w3.org/TR/2001/REC-SVG-20010904/DTD/svg10.dtd">
<svg version="1.0" xmlns="http://www.w3.org/2000/svg"
 width="859.000000pt" height="859.000000pt" viewBox="0 0 859.000000 859.000000"
 preserveAspectRatio="xMidYMid meet">

<g transform="translate(0.000000,859.000000) scale(0.100000,-0.100000)"
fill="#000000" stroke="none">
<path d="M1680 8380 c0 -5 9 -33 20 -62 11 -29 30 -87 41 -128 37 -132 106
-252 203 -357 31 -34 139 -126 239 -205 222 -175 250 -199 299 -265 41 -56 50
-90 21 -79 -10 4 -167 88 -350 186 l-332 179 -268 210 c-147 116 -308 247
-357 292 -105 94 -222 179 -248 179 -15 0 -18 -9 -18 -60 0 -56 7 -73 125
-310 75 -149 141 -267 162 -291 59 -66 286 -217 524 -349 130 -73 259 -179
259 -213 0 -18 -29 -23 -46 -8 -5 4 -88 36 -184 71 -363 131 -569 218 -700
297 -160 97 -343 222 -492 334 -64 49 -127 89 -139 89 -20 0 -21 -3 -16 -49 8
-65 22 -91 131 -243 50 -69 107 -152 126 -184 63 -104 198 -222 325 -287 89
-45 261 -115 397 -163 73 -25 158 -59 188 -75 71 -38 190 -126 190 -140 0 -14
-81 -6 -175 15 -33 8 -110 25 -170 39 -421 94 -732 205 -966 343 -50 30 -95
54 -100 54 -27 0 2 -41 94 -133 190 -191 249 -223 872 -466 443 -174 646 -264
699 -310 16 -14 70 -17 425 -22 515 -8 657 -25 936 -110 144 -44 245 -54 305
-31 22 8 15 14 -90 70 -94 51 -186 85 -506 192 -258 86 -412 143 -455 168 -73
42 -215 174 -205 191 9 14 95 14 251 1 187 -16 267 -33 780 -162 264 -66 490
-120 503 -120 13 0 29 5 35 11 18 18 -16 40 -193 127 -194 94 -377 200 -391
225 -16 31 10 33 159 15 76 -10 211 -20 302 -23 l165 -6 105 -70 c58 -39 158
-109 224 -156 75 -55 232 -148 430 -256 l311 -170 41 -120 c53 -156 92 -252
153 -372 97 -192 149 -265 300 -423 147 -155 241 -230 421 -338 47 -28 99 -65
115 -82 29 -30 30 -35 30 -118 0 -87 0 -88 -63 -214 -113 -229 -250 -395 -401
-485 -219 -131 -563 -236 -673 -205 -32 9 -41 7 -73 -15 -74 -51 -125 -57
-440 -58 -520 0 -613 10 -964 111 -172 49 -171 49 -171 30 0 -30 185 -124 347
-175 77 -25 113 -45 101 -57 -4 -4 -132 -11 -285 -16 -338 -10 -418 -18 -418
-37 0 -17 114 -45 255 -61 99 -12 139 -24 110 -34 -8 -2 -86 -26 -172 -53 -87
-26 -158 -52 -158 -57 0 -14 346 0 431 18 133 27 253 59 274 73 24 16 68 17
63 2 -7 -21 -228 -140 -408 -222 -96 -43 -179 -83 -184 -88 -19 -18 5 -22 61
-10 191 40 480 140 868 299 471 194 640 252 778 269 50 6 65 -9 24 -24 -59
-21 -287 -147 -287 -158 0 -7 14 -15 30 -18 16 -4 30 -11 30 -16 0 -5 -53 -35
-117 -66 -65 -31 -160 -84 -212 -117 -105 -68 -248 -141 -361 -184 l-75 -28
49 -11 c27 -6 51 -15 52 -20 2 -6 -32 -37 -76 -70 -72 -55 -97 -81 -87 -92 2
-2 55 15 118 39 151 55 345 107 361 96 14 -9 20 -3 -153 -153 -140 -121 -249
-206 -399 -308 -69 -47 -143 -104 -165 -126 l-39 -41 102 0 c56 0 102 -4 102
-9 0 -5 -12 -18 -28 -29 -40 -29 -98 -112 -78 -112 9 0 76 16 149 35 72 19
138 35 145 35 19 0 14 -20 -8 -28 -18 -7 -105 -111 -98 -118 7 -7 299 56 329
71 43 22 313 211 539 378 222 164 542 377 685 455 162 89 317 156 504 219 161
54 169 57 256 128 131 105 243 181 336 226 76 37 96 42 313 74 127 18 283 37
346 40 191 12 437 -22 633 -86 49 -16 93 -29 98 -29 30 0 -25 43 -152 119 -78
48 -144 92 -147 99 -7 23 80 13 168 -20 47 -17 137 -46 200 -65 63 -18 122
-41 131 -49 10 -9 27 -39 39 -67 l22 -51 19 23 c30 36 44 99 43 191 0 147 -49
219 -211 315 -70 41 -121 81 -178 140 -75 77 -89 87 -235 158 -256 125 -412
167 -725 192 -375 30 -411 34 -484 52 -74 18 -75 18 -134 93 -108 135 -131
222 -84 323 32 70 85 128 156 171 96 58 248 133 349 172 127 49 172 90 172
159 0 47 0 47 -112 155 -172 164 -308 276 -603 496 -220 164 -292 225 -391
325 -118 123 -175 203 -190 272 -11 55 -36 107 -49 107 -7 0 -22 -15 -33 -33
-53 -90 -60 -202 -18 -284 34 -67 128 -206 179 -263 65 -74 86 -140 43 -140
-28 0 -69 27 -193 127 -179 144 -252 243 -343 472 -50 125 -99 209 -127 218
-7 3 -32 -35 -59 -89 -43 -86 -47 -100 -52 -184 -3 -60 -1 -98 8 -113 6 -13 9
-25 6 -28 -14 -15 -107 48 -174 119 -68 71 -95 103 -179 221 -32 45 -151 143
-160 133 -4 -4 1 -43 10 -88 17 -83 13 -108 -19 -108 -18 0 -223 103 -383 192
-528 295 -967 606 -1433 1015 -134 117 -254 203 -283 203 -14 0 -16 -6 -10
-37 17 -95 80 -248 144 -348 47 -75 215 -249 325 -338 141 -114 244 -214 267
-259 22 -44 23 -48 7 -48 -30 0 -148 66 -377 211 -232 147 -258 167 -565 429
-177 151 -355 298 -396 326 -117 80 -190 112 -190 84z"/>
<path d="M3011 3851 c-7 -5 -11 -13 -8 -18 13 -21 118 -64 202 -83 113 -25
285 -38 285 -22 0 7 -15 12 -34 12 -18 0 -44 9 -58 19 -27 22 -133 52 -260 75
-47 9 -92 18 -100 21 -7 3 -19 1 -27 -4z"/>
<path d="M2465 3314 c-120 -6 -272 -27 -380 -51 -60 -13 -119 -26 -130 -28
-126 -25 -195 -36 -275 -45 -165 -16 -270 -34 -270 -45 0 -26 70 -37 253 -42
104 -3 185 -9 180 -13 -4 -4 -53 -19 -108 -34 -55 -15 -127 -35 -160 -46 -33
-10 -141 -37 -240 -59 -99 -23 -218 -50 -265 -61 -47 -11 -132 -28 -189 -39
-107 -20 -129 -30 -116 -52 15 -24 631 0 790 31 61 12 351 43 384 41 72 -3 30
-27 -219 -121 -118 -44 -222 -83 -230 -85 -8 -2 -161 -54 -340 -114 -356 -121
-691 -223 -870 -266 -134 -32 -164 -50 -104 -61 52 -10 689 3 834 16 63 6 160
17 215 24 160 20 230 0 130 -38 -25 -10 -45 -22 -45 -27 0 -15 198 -10 305 7
148 24 445 80 570 107 61 13 130 27 155 31 55 7 49 3 -89 -69 -52 -27 -97 -56
-99 -64 -9 -27 124 -6 278 44 296 96 550 211 805 363 142 85 209 140 265 218
l31 43 -57 -19 c-48 -17 -84 -20 -226 -20 l-168 0 -98 -39 c-53 -21 -114 -46
-134 -55 -36 -15 -38 -15 -48 4 -24 45 41 119 194 222 l71 48 -53 0 c-63 0
-173 -24 -259 -56 -37 -14 -65 -20 -68 -14 -7 11 33 51 82 81 19 12 32 23 30
25 -2 3 -68 -9 -146 -26 -78 -16 -151 -30 -161 -30 -62 0 25 60 258 177 178
90 177 87 72 116 -55 15 -243 26 -355 21z"/>
<path d="M4923 1829 l-172 -8 -80 -40 c-55 -28 -91 -55 -117 -86 -63 -75 -74
-116 -81 -306 -5 -150 -4 -169 11 -175 9 -3 16 -13 16 -21 0 -18 34 -67 77
-111 30 -30 76 -55 158 -85 21 -8 213 -12 642 -12 l613 0 31 -31 c26 -27 32
-42 39 -101 10 -90 2 -173 -19 -197 -28 -32 -62 -38 -241 -37 -96 0 -206 -3
-245 -8 -68 -9 -790 -3 -780 7 2 2 -10 14 -28 26 -18 12 -37 37 -43 56 l-12
35 -106 3 -106 3 0 -58 c1 -32 7 -74 14 -95 14 -39 112 -158 130 -158 6 0 2 7
-8 15 -11 8 -15 15 -9 15 14 0 35 -25 27 -33 -8 -8 51 -32 96 -40 19 -3 321
-7 670 -9 l635 -2 61 28 c77 34 144 103 181 181 25 55 28 72 31 197 4 129 2
140 -21 190 -13 29 -26 58 -28 63 -2 6 -19 31 -38 57 -26 36 -51 56 -105 82
l-71 34 -640 6 -640 6 -29 36 c-16 20 -30 46 -31 58 -1 11 -5 43 -10 70 -5 31
-4 50 3 55 6 3 12 27 14 53 2 26 8 51 13 55 4 5 5 1 0 -7 -4 -8 1 -6 13 5 12
11 27 25 35 31 20 17 864 32 1122 20 83 -4 93 -7 127 -35 26 -22 38 -41 40
-64 l3 -32 113 -3 112 -3 0 65 c0 57 -4 69 -35 112 -19 27 -40 61 -46 76 -12
32 -116 101 -175 117 -46 13 -841 13 -1111 0z m1277 -1342 c0 -2 -12 -14 -27
-28 l-28 -24 24 28 c23 25 31 32 31 24z"/>
<path d="M986 1801 c-5 -8 -141 -11 -446 -11 l-440 0 7 -727 c3 -401 7 -730 9
-732 2 -2 390 1 862 6 l859 10 73 39 c115 62 200 188 219 326 10 76 -4 216
-24 238 -8 9 -12 20 -8 23 3 4 1 7 -6 7 -7 0 -9 5 -6 10 4 6 -18 40 -49 77
-53 64 -55 67 -40 94 16 33 18 43 4 34 -13 -8 0 26 17 43 20 20 18 251 -2 278
-8 10 -20 37 -26 59 -6 22 -24 54 -39 72 -16 17 -32 38 -37 46 -11 20 -141 87
-168 87 -11 0 -27 6 -33 13 -17 16 -716 24 -726 8z m497 -8 c-13 -2 -33 -2
-45 0 -13 2 -3 4 22 4 25 0 35 -2 23 -4z m233 -258 c14 -14 29 -25 34 -25 18
0 40 -73 40 -135 0 -76 -14 -118 -43 -134 -12 -6 -35 -20 -52 -30 -29 -19 -56
-20 -640 -19 -335 0 -632 3 -660 6 l-50 7 3 164 c1 91 4 167 7 170 16 15 147
19 713 20 l623 1 25 -25z m258 -441 c3 -8 2 -12 -4 -9 -6 3 -10 10 -10 16 0
14 7 11 14 -7z m-591 -151 c473 -7 431 -1 486 -69 19 -22 28 -176 12 -196 -6
-7 -26 -31 -46 -53 l-35 -40 -722 0 -723 0 -2 170 c-1 94 0 176 2 183 5 14
338 16 1028 5z"/>
<path d="M708 933 c34 -2 88 -2 120 0 31 2 3 3 -63 3 -66 0 -92 -1 -57 -3z"/>
</g>
</svg>
